<?xml version="1.0" encoding="UTF-8"?>
<svg version="1.1" xmlns="http://www.w3.org/2000/svg" width="128" height="128">
<path d="M0 0 C42.24 0 84.48 0 128 0 C128 42.24 128 84.48 128 128 C85.76 128 43.52 128 0 128 C0 85.76 0 43.52 0 0 Z " fill="#010000" transform="translate(0,0)"/>
<path d="M0 0 C18.81 0 37.62 0 57 0 C57 2.31 57 4.62 57 7 C60.3 7 63.6 7 67 7 C67 8.98 67 10.96 67 13 C69.31 13 71.62 13 74 13 C74 20.92 74 28.84 74 37 C71.69 37 69.38 37 67 37 C67 38.32 67 39.64 67 41 C64.69 41 62.38 41 60 41 C60 43.31 60 45.62 60 48 C47.79 48 35.58 48 23 48 C23 54.27 23 60.54 23 67 C25.97 67 28.94 67 32 67 C32 70.63 32 74.26 32 78 C21.11 78 10.22 78 -1 78 C-1 74.37 -1 70.74 -1 67 C2.3 67 5.6 67 9 67 C9 48.52 9 30.04 9 11 C6.03 11 3.06 11 0 11 C0 7.37 0 3.74 0 0 Z " fill="#F57F02" transform="translate(27,26)"/>
<path d="M0 0 C8.25 0 16.5 0 25 0 C25 2.31 25 4.62 25 7 C27.97 7 30.94 7 34 7 C34 12.28 34 17.56 34 23 C31.03 23 28.06 23 25 23 C25 25.31 25 27.62 25 30 C16.75 30 8.5 30 0 30 C0 20.1 0 10.2 0 0 Z " fill="#020100" transform="translate(50,35)"/>
</svg>
